<?xml version="1.0" encoding="utf-8"?>
<!-- Generator: Adobe Illustrator 21.0.0, SVG Export Plug-In . SVG Version: 6.00 Build 0)  -->
<svg version="1.1" id="Layer_1" xmlns="http://www.w3.org/2000/svg" xmlns:xlink="http://www.w3.org/1999/xlink" x="0px" y="0px"
	 viewBox="0 0 234 179" style="enable-background:new 0 0 234 179;" xml:space="preserve">
<style type="text/css">
	.st0{fill:#29ABE2;}
</style>
<g>
	<path class="st0" d="M136.9,36.3c8.9,5.6,15.2,15,16.3,26c3.6,1.7,7.7,2.7,11.9,2.7c15.6,0,28.3-12.6,28.3-28.2
		c0-15.6-12.7-28.3-28.3-28.3C149.7,8.5,137.2,20.9,136.9,36.3L136.9,36.3z M118.4,94.1c15.6,0,28.3-12.6,28.3-28.3
		c0-15.6-12.6-28.2-28.3-28.2c-15.6,0-28.3,12.6-28.3,28.3C90.2,81.5,102.8,94.1,118.4,94.1L118.4,94.1z M130.4,96h-24
		c-19.9,0-36.2,16.2-36.2,36.2v29.3l0.1,0.5l2,0.6c19,5.9,35.6,7.9,49.2,7.9c26.6,0,42-7.6,42.9-8.1l1.9-0.9h0.2v-29.3
		C166.6,112.3,150.3,96,130.4,96L130.4,96z M177.1,66.9h-23.8c-0.3,9.5-4.3,18.1-10.8,24.2c17.7,5.3,30.7,21.7,30.7,41.1v9
		c23.5-0.9,37-7.5,37.9-8l1.9-1h0.2V103C213.3,83.1,197.1,66.9,177.1,66.9L177.1,66.9z M68.8,65c5.5,0,10.7-1.6,15-4.4
		c1.4-9,6.2-16.9,13.1-22.3c0-0.5,0.1-1,0.1-1.6c0-15.6-12.7-28.3-28.3-28.3c-15.6,0-28.3,12.7-28.3,28.3C40.6,52.3,53.2,65,68.8,65
		L68.8,65z M94.2,91.1C87.8,85,83.8,76.5,83.5,67c-0.9-0.1-1.8-0.1-2.7-0.1h-24c-20,0-36.2,16.2-36.2,36.2v29.3l0.1,0.5l2,0.6
		c15.3,4.8,28.9,7,40.7,7.7v-8.8C63.5,112.8,76.5,96.4,94.2,91.1L94.2,91.1z M94.2,91.1"/>
</g>
</svg>
