<?xml version="1.0" encoding="utf-8"?>
<!-- Generator: Adobe Illustrator 21.0.0, SVG Export Plug-In . SVG Version: 6.00 Build 0)  -->
<svg version="1.1" id="Layer_1" xmlns="http://www.w3.org/2000/svg" xmlns:xlink="http://www.w3.org/1999/xlink" x="0px" y="0px"
	 viewBox="0 0 234 179" style="enable-background:new 0 0 234 179;" xml:space="preserve">
<style type="text/css">
	.st0{fill:#29ABE2;}
</style>
<g>
	<path class="st0" d="M88.3,81.8l3.7,0l1.8-3.2c0.9-1.6,2.1-2.9,3.5-4l15.5-28.8L94.3,11.3c-1.7-3.2-5.6-4.7-9-3.4l-29.6,11
		c-2.1,0.8-3.7,2.5-4.4,4.6c-0.7,2.1-0.4,4.4,0.8,6.3l33.1,52.4C86.1,82,87.2,81.8,88.3,81.8L88.3,81.8z M88.3,81.8"/>
	<path class="st0" d="M182.8,23.5c-0.7-2.1-2.3-3.8-4.4-4.6l-29.6-11c-3.4-1.3-7.3,0.2-9,3.4l-32.3,60.1c2.2,0.1,4.4,0.8,6.4,1.9
		l3.2,1.8l3.2-1.8c2.2-1.3,4.7-1.9,7.3-1.9c5.2,0,10.1,2.8,12.7,7.3l1.8,3.2l3.7,0c1.1,0,2.2,0.2,3.2,0.4l33.1-52.4
		C183.2,27.9,183.5,25.6,182.8,23.5L182.8,23.5z M182.8,23.5"/>
	<path class="st0" d="M159.8,108.3l-6.8-4l-0.1-7.9c0-4-3.3-7.3-7.3-7.3l-7.9,0l-4-6.8c-2-3.5-6.5-4.7-10-2.7l-6.8,3.9l-6.8-3.9
		c-3.5-2-8-0.8-10,2.7l-4,6.8l-7.8,0.1c-4,0-7.3,3.3-7.3,7.3l0,7.9l-6.8,4c-3.5,2-4.7,6.5-2.7,10l3.9,6.8l-3.9,6.8
		c-2,3.5-0.8,8,2.7,10l6.8,4l0,7.9c0,4,3.3,7.3,7.3,7.3l7.8,0l4,6.8c2,3.5,6.5,4.7,10,2.7l6.8-3.9l6.8,3.9c1.2,0.7,2.4,1,3.6,1
		c2.5,0,5-1.3,6.4-3.6l4-6.8l7.9,0c4,0,7.3-3.3,7.3-7.3l0.1-7.9l6.8-4c3.5-2,4.7-6.5,2.7-10l-3.9-6.8l3.9-6.8
		C164.5,114.8,163.3,110.3,159.8,108.3L159.8,108.3z M145,119.5l-14,10.2l5.3,16.5c0.5,1.4,0,3-1.2,3.9c-0.6,0.4-1.3,0.7-2,0.7
		s-1.4-0.2-2-0.7l-14-10.2L103,150c-1.2,0.9-2.9,0.9-4.1,0c-1.2-0.9-1.7-2.4-1.3-3.9l5.4-16.5l-14-10.2c-1.2-0.9-1.7-2.4-1.2-3.9
		c0.5-1.4,1.8-2.4,3.3-2.4h17.3l5.4-16.5c0.5-1.4,1.8-2.4,3.3-2.4c1.5,0,2.8,1,3.3,2.4l5.3,16.5H143c1.5,0,2.8,1,3.3,2.4
		C146.7,117.1,146.2,118.7,145,119.5L145,119.5z M145,119.5"/>
</g>
</svg>
