<?xml version="1.0" encoding="utf-8"?>
<!-- Generator: Adobe Illustrator 21.0.0, SVG Export Plug-In . SVG Version: 6.00 Build 0)  -->
<svg version="1.1" id="Layer_1" xmlns="http://www.w3.org/2000/svg" xmlns:xlink="http://www.w3.org/1999/xlink" x="0px" y="0px"
	 viewBox="0 0 234 179" style="enable-background:new 0 0 234 179;" xml:space="preserve">
<style type="text/css">
	.st0{fill:#29ABE2;}
</style>
<g>
	<path class="st0" d="M140.6,119.9c0,1.8-0.7,3.4-2,4.7c-1.3,1.3-2.9,2-4.8,2h-33.8c-1.8,0-3.4-0.7-4.8-2c-1.3-1.3-2-2.9-2-4.7V103
		H22.4v50.7c0,4.6,1.7,8.6,5,11.9c3.3,3.3,7.3,5,11.9,5h155.3c4.6,0,8.6-1.7,11.9-5c3.3-3.3,5-7.3,5-11.9V103h-70.9V119.9z
		 M140.6,119.9"/>
	<rect x="103.5" y="103" class="st0" width="27" height="13.5"/>
	<path class="st0" d="M206.6,40.4c-3.3-3.3-7.3-5-11.9-5h-37.1V18.6c0-2.8-1-5.2-3-7.2c-2-2-4.4-3-7.2-3H86.6c-2.8,0-5.2,1-7.2,3
		c-2,2-3,4.4-3,7.2v16.9H39.3c-4.6,0-8.6,1.6-11.9,5c-3.3,3.3-5,7.3-5,11.9v40.5h189.1V52.4C211.6,47.7,209.9,43.7,206.6,40.4
		L206.6,40.4z M144,35.5H90V22h54V35.5z M144,35.5"/>
</g>
</svg>
