<?xml version="1.0" encoding="utf-8"?>
<!-- Generator: Adobe Illustrator 21.0.0, SVG Export Plug-In . SVG Version: 6.00 Build 0)  -->
<svg version="1.1" id="Layer_1" xmlns="http://www.w3.org/2000/svg" xmlns:xlink="http://www.w3.org/1999/xlink" x="0px" y="0px"
	 viewBox="0 0 152 151" style="enable-background:new 0 0 152 151;" xml:space="preserve">
<style type="text/css">
	.st0{fill:#6B7E87;}
</style>
<g>
	<path class="st0" d="M124.6,72.2c0-0.2,0-0.3,0-0.5c-0.1-6.1-1.2-11.1-6-13.1c-5.1-2.1-9.6-2.2-12.9-0.9c-0.2,0.1-0.8,0.8-1,1
		c-0.2,0.1-1.4-0.2-1.8-0.1c-7.2,1-9.6,7.9-9.1,13.1c1.7,3,2.3,6.8,2.4,10.8c2.7,4.7,7.3,8.3,12.8,8.3c7.4,0,13.2-6.2,15-13
		c0.7-0.1,1.3-0.6,1.3-1.3l0.2-2.7C125.7,73,125.2,72.4,124.6,72.2L124.6,72.2z M109,88.7c-7.6,0-13.3-8.1-13.3-15.3
		c0-0.3,0-0.7,0-1c3.2-1.2,9.3-3.6,9.9-4.9c2.8,2.9,12.5,4.5,16.8,5c0,0.3,0.1,0.6,0.1,0.8C122.6,80.4,116.7,88.7,109,88.7L109,88.7
		z M109,88.7"/>
	<path class="st0" d="M26.7,73.7l0.2,2.7c0.1,0.7,0.7,1.3,1.4,1.3c1.8,6.8,7.5,13,14.8,13c5.7,0,10.5-3.7,13.2-8.5
		c-0.1-3.4,0.8-6.8,2.7-9.7c-0.1-0.1-0.2-0.2-0.4-0.3c0-0.2,0-0.3,0-0.5c-0.1-6.1-1.2-11.1-6-13.1c-5.1-2.2-9.6-2.2-12.9-0.9
		c-0.2,0.1-0.8,0.8-1,1c-0.2,0.1-1.4-0.3-1.8-0.2c-7.2,1-9.6,7.9-9.1,13.2c0,0.1,0,0.3,0,0.4C27.1,72.3,26.6,72.9,26.7,73.7
		L26.7,73.7z M29.8,72.4c3.2-1.2,9.3-3.6,9.9-4.9c2.7,2.9,12.5,4.5,16.8,5c0,0.3,0.1,0.6,0.1,0.8c0,7.1-5.9,15.3-13.6,15.3
		c-7.6,0-13.3-8.1-13.3-15.3C29.8,73.1,29.8,72.7,29.8,72.4L29.8,72.4z M29.8,72.4"/>
	<path class="st0" d="M65.5,25.4c1.1,4.1,4.6,7.9,9,7.9c4.5,0,8-3.8,9.1-7.9c0.4,0,0.8-0.4,0.8-0.8l0.1-1.6c0-0.4-0.2-0.8-0.6-0.9
		c0-0.1,0-0.2,0-0.3c-0.1-3.7-0.7-6.7-3.7-8c-3.1-1.3-5.8-1.3-7.8-0.5c-0.1,0.1-0.5,0.5-0.6,0.6c-0.1,0.1-0.8-0.1-1.1-0.1
		c-4.4,0.6-5.8,4.8-5.5,8c0,0.1,0,0.2,0,0.3c-0.4,0.1-0.7,0.5-0.7,0.9l0.1,1.6C64.7,25,65.1,25.4,65.5,25.4L65.5,25.4z M66.5,22.2
		c1.9-0.7,5.6-2.2,6-3c1.7,1.8,7.6,2.7,10.3,3.1c0,0.2,0,0.3,0,0.5c0,4.3-3.6,9.3-8.3,9.3c-4.6,0-8.1-4.9-8.1-9.3
		C66.4,22.6,66.4,22.4,66.5,22.2L66.5,22.2z M66.5,22.2"/>
	<path class="st0" d="M45.4,25.1c-6.1,0.9-8.1,6.6-7.7,11.1c0,0.1,0,0.2,0,0.4c-0.6,0.1-1,0.7-1,1.3l0.2,2.3
		c0.1,0.6,0.6,1.1,1.2,1.1c1.5,5.7,6.3,11,12.5,11c6.2,0,11.1-5.3,12.7-11c0.6-0.1,1.1-0.5,1.1-1.1l0.2-2.3c0.1-0.6-0.3-1.1-0.8-1.3
		c0-0.1,0-0.3,0-0.4c-0.1-5.2-1-9.4-5.1-11.1c-4.3-1.8-8.1-1.8-10.9-0.7c-0.2,0.1-0.6,0.7-0.8,0.8C46.8,25.3,45.8,25,45.4,25.1
		L45.4,25.1z M47.8,32.7c2.3,2.4,10.6,3.8,14.2,4.3c0,0.2,0,0.4,0,0.7c0,6-5,12.9-11.4,12.9c-6.4,0-11.2-6.8-11.2-12.9
		c0-0.3,0-0.6,0-0.8C42.1,35.8,47.3,33.8,47.8,32.7L47.8,32.7z M47.8,32.7"/>
	<path class="st0" d="M86,41.3c1.5,5.7,6.3,11,12.5,11c6.2,0,11.2-5.3,12.7-11c0.4-0.1,0.7-0.3,0.9-0.6l0.3,0c0.1,0,0.2-0.1,0.2-0.2
		l0.2-2.2c0-0.2-0.1-0.2-0.2-0.2l-0.1,0c0-0.6-0.3-1.1-0.9-1.3c0-0.1,0-0.3,0-0.4c-0.1-5.2-1-9.3-5.1-11.1
		c-4.3-1.8-8.1-1.8-10.9-0.8c-0.2,0.1-0.6,0.7-0.8,0.8c-0.2,0.1-1.2-0.2-1.5-0.1c-6.1,0.9-8.1,6.6-7.7,11.1c0,0.1,0,0.3,0,0.4
		c-0.6,0.1-1,0.7-1,1.3l0.2,2.3C84.9,40.8,85.4,41.2,86,41.3L86,41.3z M87.3,36.8c2.7-1,7.8-3,8.4-4.1c2.3,2.4,10.6,3.8,14.2,4.3
		c0,0.2,0,0.4,0,0.7c0,6-5,12.9-11.4,12.9c-6.4,0-11.2-6.8-11.2-12.9C87.3,37.4,87.3,37.1,87.3,36.8L87.3,36.8z M87.3,36.8"/>
	<path class="st0" d="M64.2,42.2c-0.7,2.3-2,4.6-3.8,6.5h14.1v0l14.4,0c-1.7-1.9-3-4.2-3.7-6.5c-0.8-0.3-1.3-1-1.4-1.9L83.6,38
		c-0.1-0.9,0.3-1.6,1-2.1c-0.1-0.8,0-1.6,0.1-2.4c-0.8-0.8-1.8-1.5-3-1.6c-0.2,0-0.5,0-0.6,0.1l-3.7,5l-2.8-2.2h0v0L71.6,37l-3.7-5
		c-0.1-0.1-0.4-0.1-0.6-0.1c-1.1,0.2-1.9,0.7-2.7,1.4c0.1,0.9,0.2,1.9,0.2,2.8c0.6,0.5,1,1.2,0.9,2l-0.2,2.2
		C65.4,41.1,64.9,41.8,64.2,42.2L64.2,42.2z M64.2,42.2"/>
	<path class="st0" d="M123.8,79.6c-1.1,2.8-2.9,5.4-5.2,7.3C120.9,84.9,122.7,82.3,123.8,79.6L123.8,79.6z M123.8,79.6"/>
	<path class="st0" d="M38.1,57.6c0.1,0,0.2,0,0.2,0c0,0,0.1-0.1,0.1-0.1c0.4-0.4,0.6-0.7,1-0.8c1.9-0.7,4-1,6.2-0.9l-4-5.5
		c-0.2-0.1-0.5-0.2-0.8-0.1c-3.8,0.5-6.2,4.2-7.7,8.5c1.1-0.6,2.3-1.1,3.8-1.3l0.3,0C37.4,57.5,37.8,57.5,38.1,57.6L38.1,57.6z
		 M38.1,57.6"/>
	<path class="st0" d="M55.9,86.3l0.3,3.3c0.1,0.9,0.8,1.6,1.8,1.6c2.2,8.4,9.2,16.1,18.2,16.1c9.1,0,16.3-7.7,18.5-16
		c0.9-0.1,1.6-0.8,1.6-1.6l0.3-3.3c0.1-0.9-0.5-1.6-1.2-1.9c0-0.2,0-0.4,0-0.6c-0.2-7.5-1.5-13.6-7.4-16.2C81.6,65.1,76,65,72,66.6
		c-0.3,0.1-1,1-1.2,1.2c-0.3,0.2-1.7-0.3-2.2-0.2c-8.9,1.3-11.8,9.6-11.2,16.2c0,0.2,0,0.4-0.1,0.5C56.4,84.6,55.8,85.4,55.9,86.3
		L55.9,86.3z M59.8,84.7c3.9-1.4,11.4-4.4,12.2-6c3.4,3.5,15.4,5.5,20.7,6.2c0,0.3,0.1,0.7,0.1,1c0,8.7-7.3,18.8-16.7,18.8
		c-9.4,0-16.4-9.9-16.4-18.8C59.7,85.5,59.8,85.1,59.8,84.7L59.8,84.7z M59.8,84.7"/>
	<path class="st0" d="M54.5,57.3l-3.9-3.1l0,0v0l-2.5,2c1.6,0.3,3.3,0.7,5,1.5c5.6,2.3,6.5,8.3,6.7,13.8c2-2.5,4.8-4.3,8.7-4.9
		l0.4,0c0.3,0,0.8,0.1,1.2,0.1c0.1,0,0.1,0,0.2,0c-1-6.6-3.5-15.7-9.6-16.5c-0.3-0.1-0.6,0-0.8,0.1L54.5,57.3z M54.5,57.3"/>
	<path class="st0" d="M108.3,50.2c-0.3-0.1-0.6,0-0.8,0.1l-5.1,7l-3.9-3.1l0,0v0h0l-3.9,3.1l-5.1-7c-0.2-0.1-0.5-0.2-0.8-0.1
		c-5.5,0.8-8.1,8.1-9.3,14.3c2.9,0.2,5.9,0.9,9,2.2c1.9,0.8,3.4,2,4.5,3.4c0-5.6,2.9-11.6,10-12.6l0.3,0c0.3,0,0.6,0.1,1,0.1
		c0.1,0,0.2,0,0.2,0c0,0,0.1-0.1,0.1-0.1c0.4-0.4,0.6-0.6,0.9-0.8c2.8-1.1,6.2-1.2,9.8-0.3C113.6,53.2,111.4,50.7,108.3,50.2
		L108.3,50.2z M108.3,50.2"/>
	<path class="st0" d="M76,138.3l29.5,0c0,0-0.9-32-15.1-34c-0.5-0.1-0.9,0-1.2,0.1l-7.5,10.1l-5.7-4.5l0,0v0v0l-5.7,4.5l-7.5-10.2
		c-0.3-0.1-0.8-0.2-1.2-0.1c-14.2,2-15,34-15,34L76,138.3L76,138.3z M76,138.3"/>
	<path class="st0" d="M109,115.9l24,0c0,0-0.7-26-12.2-27.6c-0.4-0.1-0.7,0-1,0.1l-6.1,8.3L109,93l0,0v0h0l-4.6,3.7l-6.1-8.2
		c-0.2-0.1-0.5-0.1-0.8-0.1l-0.1,1.4c-0.1,1.1-0.8,2-1.8,2.4c-1.5,4.9-4.7,9.7-9.1,12.8c-0.2,0.8-0.3,1.5-0.4,2.2l2.6-3.6l0.3-0.1
		c0.3-0.1,1-0.3,1.8-0.2c5.9,0.8,9.6,6.3,11.9,12.7L109,115.9L109,115.9z M109,115.9"/>
	<path class="st0" d="M19.1,115.9l24,0v0h6.5c2.3-6.4,6-11.8,11.9-12.6c0.7-0.1,1.5,0.1,1.8,0.2l0.3,0.1l2.6,3.5
		c-0.1-0.8-0.3-1.7-0.5-2.5c-4.1-3.1-7.1-7.7-8.5-12.4c-1.1-0.3-1.9-1.3-2-2.4L55,88.4c-0.1,0-0.2-0.1-0.3-0.1c-0.4-0.1-0.8,0-1,0.1
		l-6.1,8.3L43,93l0,0v0v0l-4.6,3.7l-6.1-8.2c-0.2-0.1-0.6-0.2-1-0.1C19.8,90,19.1,115.9,19.1,115.9L19.1,115.9z M19.1,115.9"/>
</g>
</svg>
